<?xml version="1.0" encoding="UTF-8"?>
<svg width="300px" height="300px" viewBox="0 0 300 300" version="1.1" xmlns="http://www.w3.org/2000/svg" xmlns:xlink="http://www.w3.org/1999/xlink">
    <!-- Generator: Sketch 45.2 (43514) - http://www.bohemiancoding.com/sketch -->
    <title>Icons/Quick MenuHovered</title>
    <desc>Created with Sketch.</desc>
    <defs>
        <path d="M150,290 C227.319865,290 290,227.319865 290,150 C290,72.680135 227.319865,10 150,10 C72.680135,10 10,72.680135 10,150 C10,227.319865 72.680135,290 150,290 Z M150,300 C67.1572875,300 0,232.842712 0,150 C0,67.1572875 67.1572875,0 150,0 C232.842712,0 300,67.1572875 300,150 C300,232.842712 232.842712,300 150,300 Z M86.8287553,173.47854 C97.3879826,173.47854 106.15751,164.709013 106.15751,154.328755 C106.15751,143.769528 97.3879826,135 86.8287553,135 C76.2695279,135 67.5000001,143.769528 67.5000001,154.328755 C67.5000001,164.709013 76.2695279,173.47854 86.8287553,173.47854 Z M150.899999,173.47854 C161.459227,173.47854 170.228754,164.709013 170.228754,154.328755 C170.228754,143.769528 161.459227,135 150.899999,135 C140.340772,135 131.571244,143.769528 131.571244,154.328755 C131.571244,164.709013 140.340772,173.47854 150.899999,173.47854 Z M214.971243,173.47854 C225.530471,173.47854 234.299998,164.709013 234.299998,154.328755 C234.299998,143.769528 225.530471,135 214.971243,135 C204.412016,135 195.642488,143.769528 195.642488,154.328755 C195.642488,164.709013 204.412016,173.47854 214.971243,173.47854 Z" id="path-1"></path>
    </defs>
    <g id="1.3.-Icons" stroke="none" stroke-width="1" fill="none" fill-rule="evenodd">
        <g id="Icons/Quick-Menu">
            <mask id="mask-2" fill="white">
                <use xlink:href="#path-1"></use>
            </mask>
            <use id="Mask" fill="#9B9B9C" fill-rule="nonzero" xlink:href="#path-1"></use>
            <g id="🎨-Color/Icons/Green-Accent" mask="url(#mask-2)" fill-rule="evenodd" fill="#73B680">
                <rect id="Rectangle" x="0" y="0" width="300" height="300"></rect>
            </g>
        </g>
    </g>
</svg>