<?xml version="1.0" encoding="UTF-8"?>
<svg width="300px" height="300px" viewBox="0 0 300 300" version="1.1" xmlns="http://www.w3.org/2000/svg" xmlns:xlink="http://www.w3.org/1999/xlink">
    <!-- Generator: Sketch 45.1 (43504) - http://www.bohemiancoding.com/sketch -->
    <title>Icon Library/Mobile Number</title>
    <desc>Created with Sketch.</desc>
    <defs>
        <path d="M168.75,270 C168.75,259.6875 160.3125,251.25 150,251.25 C139.6875,251.25 131.25,259.6875 131.25,270 C131.25,280.3125 139.6875,288.75 150,288.75 C160.3125,288.75 168.75,280.3125 168.75,270 Z M217.5,232.5 L217.5,67.5 C217.5,63.515625 213.984375,60 210,60 L90,60 C86.015625,60 82.5,63.515625 82.5,67.5 L82.5,232.5 C82.5,236.484375 86.015625,240 90,240 L210,240 C213.984375,240 217.5,236.484375 217.5,232.5 Z M172.5,33.75 C172.5,31.640625 170.859375,30 168.75,30 L131.25,30 C129.140625,30 127.5,31.640625 127.5,33.75 C127.5,35.859375 129.140625,37.5 131.25,37.5 L168.75,37.5 C170.859375,37.5 172.5,35.859375 172.5,33.75 Z M240,30 L240,270 C240,286.40625 226.40625,300 210,300 L90,300 C73.59375,300 60,286.40625 60,270 L60,30 C60,13.59375 73.59375,0 90,0 L210,0 C226.40625,0 240,13.59375 240,30 Z" id="path-1"></path>
    </defs>
    <g id="Icons" stroke="none" stroke-width="1" fill="none" fill-rule="evenodd">
        <g id="Icon-Library/Mobile-Number">
            <mask id="mask-2" fill="white">
                <use xlink:href="#path-1"></use>
            </mask>
            <use id="Mask" fill="#A8ABB4" xlink:href="#path-1"></use>
            <g id="🎨-Color/Defult-State-Light-Grey" mask="url(#mask-2)" fill="#A5A5A6">
                <rect id="Rectangle" x="0" y="0" width="300" height="300"></rect>
            </g>
        </g>
    </g>
</svg>