<?xml version="1.0" encoding="UTF-8"?>
<svg width="300px" height="300px" viewBox="0 0 300 300" version="1.1" xmlns="http://www.w3.org/2000/svg" xmlns:xlink="http://www.w3.org/1999/xlink">
    <!-- Generator: Sketch 45.1 (43504) - http://www.bohemiancoding.com/sketch -->
    <title>Icon Library/Home</title>
    <desc>Created with Sketch.</desc>
    <defs>
        <path d="M257.177395,168.553627 L257.177395,257.868122 C257.177395,264.380638 251.781311,269.776722 245.268795,269.776722 L173.817199,269.776722 L173.817199,198.325125 L126.182801,198.325125 L126.182801,269.776722 L54.7312047,269.776722 C48.2186894,269.776722 42.8226053,264.380638 42.8226053,257.868122 L42.8226053,168.553627 C42.8226053,168.181483 43.0086772,167.809339 43.0086772,167.437196 L150,79.2391312 L256.991323,167.437196 C257.177395,167.809339 257.177395,168.181483 257.177395,168.553627 Z M298.671421,155.714668 L287.134965,169.483986 C286.204606,170.600417 284.716031,171.344705 283.227456,171.530777 L282.66924,171.530777 C281.180665,171.530777 279.878162,171.158633 278.761731,170.228274 L150,62.864807 L21.2382689,170.228274 C19.9357658,171.158633 18.4471909,171.716848 16.7725441,171.530777 C15.2839692,171.344705 13.7953943,170.600417 12.8650349,169.483986 L1.32857926,155.714668 C-0.71821126,153.295734 -0.346067528,149.388225 2.07286673,147.341434 L135.858538,35.8843865 C143.673557,29.3718712 156.326443,29.3718712 164.141462,35.8843865 L209.542997,73.8430471 L209.542997,37.5590333 C209.542997,34.2097397 212.148003,31.6047336 215.497297,31.6047336 L251.223095,31.6047336 C254.572389,31.6047336 257.177395,34.2097397 257.177395,37.5590333 L257.177395,113.476354 L297.927133,147.341434 C300.346068,149.388225 300.718211,153.295734 298.671421,155.714668 Z" id="path-1"></path>
    </defs>
    <g id="Icons" stroke="none" stroke-width="1" fill="none" fill-rule="evenodd">
        <g id="Icon-Library/Home">
            <mask id="mask-2" fill="white">
                <use xlink:href="#path-1"></use>
            </mask>
            <use id="Mask" fill="#A8ABB4" xlink:href="#path-1"></use>
            <g id="🎨-Color/Defult-State-Light-Grey" mask="url(#mask-2)" fill="#A5A5A6">
                <rect id="Rectangle" x="0" y="0" width="300" height="300"></rect>
            </g>
        </g>
    </g>
</svg>