<?xml version="1.0" encoding="UTF-8"?>
<svg width="300px" height="300px" viewBox="0 0 300 300" version="1.1" xmlns="http://www.w3.org/2000/svg" xmlns:xlink="http://www.w3.org/1999/xlink">
    <!-- Generator: Sketch 45.1 (43504) - http://www.bohemiancoding.com/sketch -->
    <title>Icon Library/Work Number</title>
    <desc>Created with Sketch.</desc>
    <defs>
        <path d="M107.142857,63.8571429 L192.857143,63.8571429 L192.857143,42.4285714 L107.142857,42.4285714 L107.142857,63.8571429 Z M300,171 L300,251.357143 C300,266.089286 287.946429,278.142857 273.214286,278.142857 L26.7857143,278.142857 C12.0535714,278.142857 0,266.089286 0,251.357143 L0,171 L112.5,171 L112.5,197.785714 C112.5,203.645089 117.354911,208.5 123.214286,208.5 L176.785714,208.5 C182.645089,208.5 187.5,203.645089 187.5,197.785714 L187.5,171 L300,171 Z M171.428571,171 L171.428571,192.428571 L128.571429,192.428571 L128.571429,171 L171.428571,171 Z M300,90.6428571 L300,154.928571 L0,154.928571 L0,90.6428571 C0,75.9107143 12.0535714,63.8571429 26.7857143,63.8571429 L85.7142857,63.8571429 L85.7142857,37.0714286 C85.7142857,28.1986607 92.9129464,21 101.785714,21 L198.214286,21 C207.087054,21 214.285714,28.1986607 214.285714,37.0714286 L214.285714,63.8571429 L273.214286,63.8571429 C287.946429,63.8571429 300,75.9107143 300,90.6428571 Z" id="path-1"></path>
    </defs>
    <g id="Icons" stroke="none" stroke-width="1" fill="none" fill-rule="evenodd">
        <g id="Icon-Library/Work-Number">
            <mask id="mask-2" fill="white">
                <use xlink:href="#path-1"></use>
            </mask>
            <use id="Mask" fill="#A8ABB4" xlink:href="#path-1"></use>
            <g id="🎨-Color/Defult-State-Light-Grey" mask="url(#mask-2)" fill="#A5A5A6">
                <rect id="Rectangle" x="0" y="0" width="300" height="300"></rect>
            </g>
        </g>
    </g>
</svg>