<?xml version="1.0" encoding="UTF-8"?>
<svg width="300px" height="300px" viewBox="0 0 300 300" version="1.1" xmlns="http://www.w3.org/2000/svg" xmlns:xlink="http://www.w3.org/1999/xlink">
    <!-- Generator: Sketch 45.1 (43504) - http://www.bohemiancoding.com/sketch -->
    <title>Icon Library/Fax Number</title>
    <desc>Created with Sketch.</desc>
    <defs>
        <path d="M48.2142857,64.2857143 L26.7857143,64.2857143 C12.0535714,64.2857143 0,76.3392857 0,91.0714286 L0,273.214286 C0,287.946429 12.0535714,300 26.7857143,300 L48.2142857,300 C62.9464286,300 75,287.946429 75,273.214286 L75,91.0714286 C75,76.3392857 62.9464286,64.2857143 48.2142857,64.2857143 Z M278.571429,91.5736607 C291.294643,98.9397321 300,112.834821 300,128.571429 L300,257.142857 C300,280.747768 280.747768,300 257.142857,300 L112.5,300 C97.7678571,300 85.7142857,287.946429 85.7142857,273.214286 L85.7142857,16.0714286 C85.7142857,7.19866071 92.9129464,0 101.785714,0 L214.285714,0 C223.158482,0 235.546875,5.18973214 241.741071,11.3839286 L267.1875,36.8303571 C273.381696,43.0245536 278.571429,55.4129464 278.571429,64.2857143 L278.571429,91.5736607 Z M155.357143,257.142857 L155.357143,235.714286 C155.357143,232.700893 153.013393,230.357143 150,230.357143 L128.571429,230.357143 C125.558036,230.357143 123.214286,232.700893 123.214286,235.714286 L123.214286,257.142857 C123.214286,260.15625 125.558036,262.5 128.571429,262.5 L150,262.5 C153.013393,262.5 155.357143,260.15625 155.357143,257.142857 Z M155.357143,214.285714 L155.357143,192.857143 C155.357143,189.84375 153.013393,187.5 150,187.5 L128.571429,187.5 C125.558036,187.5 123.214286,189.84375 123.214286,192.857143 L123.214286,214.285714 C123.214286,217.299107 125.558036,219.642857 128.571429,219.642857 L150,219.642857 C153.013393,219.642857 155.357143,217.299107 155.357143,214.285714 Z M155.357143,171.428571 L155.357143,150 C155.357143,146.986607 153.013393,144.642857 150,144.642857 L128.571429,144.642857 C125.558036,144.642857 123.214286,146.986607 123.214286,150 L123.214286,171.428571 C123.214286,174.441964 125.558036,176.785714 128.571429,176.785714 L150,176.785714 C153.013393,176.785714 155.357143,174.441964 155.357143,171.428571 Z M198.214286,257.142857 L198.214286,235.714286 C198.214286,232.700893 195.870536,230.357143 192.857143,230.357143 L171.428571,230.357143 C168.415179,230.357143 166.071429,232.700893 166.071429,235.714286 L166.071429,257.142857 C166.071429,260.15625 168.415179,262.5 171.428571,262.5 L192.857143,262.5 C195.870536,262.5 198.214286,260.15625 198.214286,257.142857 Z M198.214286,214.285714 L198.214286,192.857143 C198.214286,189.84375 195.870536,187.5 192.857143,187.5 L171.428571,187.5 C168.415179,187.5 166.071429,189.84375 166.071429,192.857143 L166.071429,214.285714 C166.071429,217.299107 168.415179,219.642857 171.428571,219.642857 L192.857143,219.642857 C195.870536,219.642857 198.214286,217.299107 198.214286,214.285714 Z M198.214286,171.428571 L198.214286,150 C198.214286,146.986607 195.870536,144.642857 192.857143,144.642857 L171.428571,144.642857 C168.415179,144.642857 166.071429,146.986607 166.071429,150 L166.071429,171.428571 C166.071429,174.441964 168.415179,176.785714 171.428571,176.785714 L192.857143,176.785714 C195.870536,176.785714 198.214286,174.441964 198.214286,171.428571 Z M241.071429,257.142857 L241.071429,235.714286 C241.071429,232.700893 238.727679,230.357143 235.714286,230.357143 L214.285714,230.357143 C211.272321,230.357143 208.928571,232.700893 208.928571,235.714286 L208.928571,257.142857 C208.928571,260.15625 211.272321,262.5 214.285714,262.5 L235.714286,262.5 C238.727679,262.5 241.071429,260.15625 241.071429,257.142857 Z M241.071429,214.285714 L241.071429,192.857143 C241.071429,189.84375 238.727679,187.5 235.714286,187.5 L214.285714,187.5 C211.272321,187.5 208.928571,189.84375 208.928571,192.857143 L208.928571,214.285714 C208.928571,217.299107 211.272321,219.642857 214.285714,219.642857 L235.714286,219.642857 C238.727679,219.642857 241.071429,217.299107 241.071429,214.285714 Z M241.071429,171.428571 L241.071429,150 C241.071429,146.986607 238.727679,144.642857 235.714286,144.642857 L214.285714,144.642857 C211.272321,144.642857 208.928571,146.986607 208.928571,150 L208.928571,171.428571 C208.928571,174.441964 211.272321,176.785714 214.285714,176.785714 L235.714286,176.785714 C238.727679,176.785714 241.071429,174.441964 241.071429,171.428571 Z M257.142857,107.142857 L257.142857,64.2857143 L230.357143,64.2857143 C221.484375,64.2857143 214.285714,57.0870536 214.285714,48.2142857 L214.285714,21.4285714 L107.142857,21.4285714 L107.142857,107.142857 L257.142857,107.142857 Z" id="path-1"></path>
    </defs>
    <g id="Icons" stroke="none" stroke-width="1" fill="none" fill-rule="evenodd">
        <g id="Icon-Library/Fax-Number">
            <mask id="mask-2" fill="white">
                <use xlink:href="#path-1"></use>
            </mask>
            <use id="Mask" fill="#A8ABB4" xlink:href="#path-1"></use>
            <g id="🎨-Color/Defult-State-Light-Grey" mask="url(#mask-2)" fill="#A5A5A6">
                <rect id="Rectangle" x="0" y="0" width="300" height="300"></rect>
            </g>
        </g>
    </g>
</svg>